<?xml version="1.0" encoding="iso-8859-1"?>
<!-- Uploaded to: SVG Repo, www.svgrepo.com, Generator: SVG Repo Mixer Tools -->
<svg fill="#ffffff" height="800px" width="800px" version="1.1" id="Layer_1" xmlns="http://www.w3.org/2000/svg" xmlns:xlink="http://www.w3.org/1999/xlink" 
	 viewBox="0 0 459.946 459.946" xml:space="preserve">
<g id="XMLID_16_">
	<g>
		<g>
			<path d="M208.821,221.661c0.822,5.017,3.702,9.462,7.944,12.264l75.312,49.741c5.923,3.912,12.867,2.076,19.089-1.506
				c2.547-1.466,15.749-9.668,59.798-38.777L435,252.881c8.011,1.189,15.478-4.345,16.667-12.361
				c1.189-8.016-4.345-15.478-12.361-16.667l-69.587-10.321c-3.575-0.531-7.22,0.277-10.235,2.268l-30.486,20.12l-3.771-2.939
				c-10.184,6.494-16.467,10.501-27.305,17.413c-6.068,3.87-13.74,3.208-19.048-1.075l-37.963-30.727l43.118,19.079
				c3.735,1.652,8.059,1.335,11.522-0.872l41.189-26.267c5.694-3.631,7.366-11.191,3.735-16.885
				c-3.63-5.694-11.19-7.365-16.884-3.735l-35.661,22.743l-37.123-16.426l31.57,4.859l1.066-0.68l-26.345-20.538
				c-7.941-6.191-19.397-4.772-25.587,3.169l-19.073,24.466C209.308,211.512,207.999,216.644,208.821,221.661z"/>
			<path d="M165.081,181.891c0.023-1.228,0.242-2.458,0.661-3.651c1.029-2.931,3.139-5.287,5.94-6.632l10.95-5.259
				c5.9-2.834,12.809-0.199,15.522,5.45l8.376,17.441c0.301,0.626,0.529,1.268,0.709,1.915c1.251-1.1,2.422-2.327,3.484-3.69
				c9.164-11.755,7.064-28.714-4.691-37.878s-28.714-7.064-37.878,4.691c-6.378,8.181-7.294,18.881-3.302,27.721L165.081,181.891z"
				/>
			<path d="M442.913,302.746c6.597,2.389,13.883-1.023,16.271-7.621c2.389-6.597-1.023-13.882-7.62-16.271l-64.74-23.44
				c-3.715-1.344-7.84-0.886-11.167,1.24l-73.38,46.898l-123.569-81.27c-5.863-3.856-13.74-2.229-17.596,3.633
				c-3.856,5.863-2.229,13.74,3.634,17.596l130.451,85.796c2.117,1.393,4.549,2.09,6.981,2.09c2.377,0,4.754-0.666,6.842-1.999
				l7.487-4.785l26.022,55.048h-40.435c-7.017,0-12.704,5.688-12.704,12.705c0,7.016,5.688,12.705,12.704,12.705h143.121
				c7.017,0,12.704-5.688,12.704-12.705c0-7.017-5.688-12.705-12.704-12.705h-35.067l-39.153-89.871l13.068-8.352L442.913,302.746z"
				/>
			<path d="M181.473,196.157l1.996,4.157c0.433,0.901,1.509,1.273,2.403,0.844l10.95-5.259c0.897-0.431,1.274-1.506,0.844-2.403
				l-8.376-17.441c-0.432-0.899-1.507-1.274-2.403-0.844l-10.951,5.259c-0.896,0.431-1.274,1.506-0.844,2.403l1.996,4.157
				l-7.201,3.458c1.262,3.236,1.887,6.761,1.732,10.4L181.473,196.157z"/>
			<circle cx="83.371" cy="83.427" r="28.552"/>
			<path d="M147.896,186.098l-57.058-8.402l-25.115-31.743l26.253,19.889l5.111,0.753l1.481-18.021
				c0.945-11.501-7.612-21.592-19.113-22.537l-37.138-3.053c-11.501-0.946-21.592,7.612-22.537,19.113l-6.599,107.027l8.752,57.064
				L0.597,384.013c-2.431,8.869,2.787,18.029,11.656,20.461c8.874,2.431,18.03-2.792,20.461-11.656l22.275-81.245
				c0.618-2.255,0.755-4.615,0.4-6.927l-8.085-52.717l6.478,0.533l19.862,54.155l-16.592,78.35
				c-2.19,10.342,5.697,20.104,16.306,20.104c7.699,0,14.614-5.371,16.273-13.204l17.584-83.036
				c0.648-3.062,0.421-6.245-0.657-9.183l-16.671-45.454l2.97-36.127l-13.239-1.95c-4.45-0.655-12.542-0.835-16.455-9.505
				L43.96,163.171l28.53,36.06c2.194,2.773,5.363,4.603,8.86,5.118l62.503,9.204c7.592,1.116,14.634-4.133,15.749-11.706
				C160.719,194.266,155.477,187.215,147.896,186.098z"/>
		</g>
	</g>
</g>
</svg>