<?xml version="1.0" encoding="iso-8859-1"?>
<!-- Uploaded to: SVG Repo, www.svgrepo.com, Generator: SVG Repo Mixer Tools -->
<svg fill="#ffffff" height="800px" width="800px" version="1.1" id="Layer_1" xmlns="http://www.w3.org/2000/svg" xmlns:xlink="http://www.w3.org/1999/xlink" 
	 viewBox="0 0 511.998 511.998" xml:space="preserve">
<g>
	<g>
		<path d="M334.587,125.373c7.725,0,14.01-6.285,14.01-14.01V80.137c0-7.725-6.285-14.01-14.01-14.01h-5.91
			c-1.455-15.439-7.781-30.042-18.184-41.703c-3.141-3.522-8.544-3.831-12.065-0.688c-3.522,3.141-3.83,8.543-0.688,12.065
			c7.602,8.523,12.364,19.098,13.751,30.326H200.503c3.404-27.597,26.993-49.035,55.496-49.035c4.719,0,8.546-3.826,8.546-8.546
			c0-4.719-3.826-8.546-8.546-8.546c-37.935,0-69.193,29.086-72.672,66.126h-5.916c-7.725,0-14.01,6.285-14.01,14.01v31.225
			c0,7.725,6.285,14.01,14.01,14.01h5.582v261.254h-5.582c-7.725,0-14.01,6.285-14.01,14.01v31.225c0,7.725,6.285,14.01,14.01,14.01
			h5.916c3.48,37.04,34.738,66.126,72.672,66.126c37.935,0,69.193-29.086,72.673-66.126h5.916c7.725,0,14.01-6.285,14.01-14.01
			v-31.225c0-7.725-6.285-14.01-14.01-14.01h-5.582V125.373H334.587z M255.999,494.909c-28.503,0-52.092-21.438-55.495-49.035
			h110.988C308.091,473.47,284.5,494.909,255.999,494.909z M331.507,403.717v25.064h-11.048H191.538H180.49v-25.064h11.048h128.921
			H331.507z M253.76,142.026c-1.667-4.414-6.597-6.643-11.015-4.974l-42.661,16.117v-27.797h111.83v42.957l-111.83,42.25V171.44
			l48.702-18.399C253.202,151.372,255.428,146.441,253.76,142.026z M311.914,186.6v39.139l-111.83,42.25V228.85L311.914,186.6z
			 M311.914,244.01v39.139l-111.83,42.25V286.26L311.914,244.01z M311.914,301.42v39.138l-53.389,20.17
			c-4.415,1.668-6.642,6.599-4.974,11.015c1.292,3.421,4.543,5.527,7.996,5.527c1.003,0,2.024-0.178,3.018-0.554l47.348-17.888
			v27.797h-111.83V343.67L311.914,301.42z M320.459,108.282H191.538H180.49V83.218h11.048h128.921h11.048v25.064H320.459z"/>
	</g>
</g>
</svg>