<svg width="64" height="64" viewBox="0 0 64 64" fill="none" xmlns="http://www.w3.org/2000/svg" xmlns:xlink="http://www.w3.org/1999/xlink">
<path d="M63.969,14.549C63.941,13.176 63.831,11.806 63.637,10.447C63.408,9.239 63.018,8.067 62.478,6.962C61.294,4.622 59.394,2.72 57.055,1.533C55.957,0.995 54.792,0.605 53.591,0.374C52.221,0.177 50.84,0.064 49.456,0.037C48.869,0.016 48.109,0.005 47.759,0.005L16.246,0C15.897,0 15.137,0.011 14.549,0.031C13.176,0.058 11.806,0.169 10.447,0.363C9.239,0.592 8.067,0.982 6.963,1.522C4.622,2.706 2.72,4.606 1.533,6.945C0.995,8.044 0.605,9.208 0.374,10.409C0.177,11.779 0.064,13.16 0.037,14.544C0.016,15.131 0.005,15.891 0.005,16.241L0,47.754C0,48.103 0.011,48.863 0.031,49.451C0.058,50.824 0.169,52.194 0.363,53.554C0.592,54.761 0.982,55.933 1.522,57.038C2.706,59.378 4.606,61.28 6.945,62.467C8.043,63.005 9.208,63.395 10.409,63.626C11.779,63.823 13.16,63.936 14.544,63.963C15.131,63.984 15.891,63.995 16.241,63.995L47.754,64C48.103,64 48.863,63.989 49.451,63.969C50.824,63.941 52.194,63.831 53.554,63.637C54.761,63.408 55.933,63.018 57.037,62.478C59.378,61.294 61.28,59.394 62.467,57.055C63.005,55.956 63.395,54.792 63.626,53.591C63.823,52.221 63.936,50.84 63.963,49.456C63.984,48.869 63.995,48.109 63.995,47.759L64,16.246C64,15.897 63.989,15.137 63.969,14.549ZM32.694,54.261L32.684,54.261C28.875,54.26 25.127,53.306 21.782,51.485L9.688,54.656L12.925,42.838C10.417,38.487 9.415,33.431 10.074,28.453C10.733,23.475 13.016,18.853 16.568,15.304C20.121,11.755 24.745,9.478 29.724,8.825C34.703,8.171 39.758,9.179 44.106,11.691C48.454,14.204 51.852,18.08 53.772,22.72C55.693,27.36 56.029,32.503 54.729,37.354C53.428,42.204 50.564,46.49 46.58,49.547C42.596,52.603 37.715,54.26 32.694,54.261Z" fill="#000000"/>
<path d="M32.701,12.483C29.313,12.483 25.986,13.39 23.067,15.11C20.148,16.83 17.743,19.302 16.103,22.266C14.462,25.231 13.646,28.581 13.739,31.968C13.832,35.355 14.83,38.655 16.631,41.526L17.082,42.243L15.166,49.238L22.342,47.356L23.035,47.767C25.957,49.497 29.29,50.409 32.686,50.409L32.693,50.409C37.718,50.403 42.536,48.404 46.087,44.849C49.639,41.294 51.635,36.475 51.636,31.45C51.637,26.425 49.643,21.605 46.093,18.049C42.543,14.493 37.726,12.491 32.701,12.483ZM43.854,39.587C43.435,40.28 42.876,40.878 42.214,41.345C41.552,41.811 40.8,42.135 40.007,42.297C38.809,42.502 37.579,42.425 36.416,42.071C35.313,41.729 34.228,41.328 33.167,40.871C29.23,38.895 25.874,35.93 23.429,32.266C22.096,30.57 21.287,28.521 21.101,26.371C21.086,25.484 21.255,24.603 21.598,23.784C21.942,22.966 22.452,22.228 23.097,21.617C23.287,21.4 23.52,21.225 23.782,21.102C24.044,20.979 24.328,20.912 24.617,20.904C24.996,20.904 25.377,20.908 25.709,20.925C26.059,20.942 26.529,20.792 26.992,21.903C27.467,23.044 28.607,25.848 28.749,26.134C28.839,26.283 28.891,26.453 28.899,26.627C28.908,26.801 28.872,26.975 28.797,27.132C28.653,27.475 28.461,27.795 28.227,28.083C27.942,28.416 27.628,28.826 27.372,29.081C27.086,29.365 26.789,29.674 27.121,30.244C27.978,31.71 29.046,33.04 30.293,34.192C31.645,35.394 33.196,36.351 34.877,37.02C35.447,37.306 35.779,37.258 36.112,36.878C36.444,36.497 37.537,35.214 37.916,34.643C38.296,34.073 38.676,34.168 39.199,34.358C39.721,34.548 42.524,35.927 43.094,36.212C43.664,36.497 44.044,36.64 44.187,36.878C44.343,37.794 44.227,38.736 43.854,39.587Z" fill="#000000"/>
</svg>
