<svg width="64" height="64" viewBox="0 0 64 64" fill="none" xmlns="http://www.w3.org/2000/svg" xmlns:xlink="http://www.w3.org/1999/xlink">
<path d="M32,24.38C30.493,24.381 29.02,24.828 27.767,25.666C26.515,26.503 25.538,27.694 24.962,29.086C24.386,30.478 24.235,32.01 24.53,33.488C24.824,34.966 25.55,36.324 26.616,37.389C27.682,38.455 29.039,39.18 30.517,39.474C31.995,39.768 33.527,39.617 34.92,39.04C36.312,38.463 37.502,37.486 38.339,36.233C39.176,34.98 39.623,33.507 39.623,32C39.621,29.979 38.818,28.041 37.388,26.613C35.959,25.184 34.021,24.381 32,24.38ZM49.816,18.523C49.428,17.54 48.842,16.647 48.095,15.9C47.347,15.152 46.455,14.566 45.471,14.179C42.471,12.994 35.329,13.26 32,13.26C28.671,13.26 21.536,12.984 18.527,14.179C17.544,14.566 16.651,15.152 15.904,15.9C15.157,16.647 14.571,17.54 14.183,18.523C13,21.523 13.264,28.673 13.264,31.999C13.264,35.324 13,42.466 14.189,45.476C14.576,46.459 15.162,47.352 15.91,48.099C16.657,48.846 17.55,49.432 18.533,49.82C21.533,51.004 28.676,50.739 32.006,50.739C35.336,50.739 42.469,51.014 45.477,49.82C46.46,49.432 47.353,48.846 48.1,48.099C48.848,47.352 49.434,46.459 49.821,45.476C51.014,42.476 50.74,35.326 50.74,32C50.74,28.674 51.014,21.534 49.821,18.524L49.816,18.523ZM32,43.714C29.683,43.714 27.418,43.027 25.492,41.74C23.565,40.453 22.064,38.623 21.177,36.483C20.291,34.342 20.059,31.987 20.511,29.715C20.963,27.442 22.078,25.355 23.717,23.717C25.355,22.078 27.442,20.963 29.715,20.511C31.987,20.059 34.342,20.291 36.483,21.177C38.623,22.064 40.453,23.565 41.74,25.492C43.027,27.418 43.714,29.683 43.714,32C43.716,33.539 43.414,35.063 42.826,36.485C42.238,37.907 41.376,39.199 40.287,40.287C39.199,41.376 37.907,42.238 36.485,42.826C35.063,43.414 33.539,43.716 32,43.714ZM44.197,22.529C43.656,22.529 43.128,22.369 42.678,22.068C42.228,21.768 41.877,21.341 41.67,20.842C41.463,20.342 41.408,19.792 41.514,19.262C41.619,18.731 41.879,18.244 42.262,17.861C42.644,17.479 43.131,17.218 43.662,17.113C44.192,17.007 44.742,17.061 45.242,17.268C45.741,17.475 46.169,17.825 46.469,18.275C46.77,18.725 46.93,19.253 46.93,19.794C46.932,20.153 46.862,20.509 46.726,20.842C46.589,21.174 46.389,21.476 46.135,21.731C45.882,21.985 45.581,22.187 45.249,22.325C44.918,22.463 44.562,22.534 44.203,22.534L44.197,22.529ZM57.143,0L6.857,0C5.039,0 3.294,0.722 2.008,2.008C0.722,3.294 0,5.039 0,6.857L0,57.143C0,58.961 0.722,60.706 2.008,61.992C3.294,63.278 5.039,64 6.857,64L57.143,64C58.961,64 60.706,63.278 61.992,61.992C63.278,60.706 64,58.961 64,57.143L64,6.857C64,5.039 63.278,3.294 61.992,2.008C60.706,0.722 58.961,0 57.143,0ZM54.697,41.429C54.513,45.09 53.677,48.334 51.004,51C48.331,53.666 45.09,54.519 41.433,54.693C37.66,54.906 26.349,54.906 22.576,54.693C18.914,54.509 15.681,53.671 13.004,51C10.327,48.329 9.486,45.083 9.311,41.429C9.099,37.654 9.099,26.341 9.311,22.571C9.496,18.91 10.321,15.666 13.004,13C15.687,10.334 18.929,9.491 22.576,9.317C26.349,9.104 37.66,9.104 41.433,9.317C45.094,9.501 48.337,10.339 51.004,13.01C53.671,15.681 54.523,18.927 54.697,22.589C54.91,26.349 54.91,37.651 54.697,41.429Z" fill="#000000"/>
</svg>
