<svg width="64" height="64" viewBox="0 0 64 64" fill="none" xmlns="http://www.w3.org/2000/svg" xmlns:xlink="http://www.w3.org/1999/xlink">
<path d="M57.143,0L6.857,0C5.039,0 3.294,0.722 2.008,2.008C0.722,3.294 0,5.039 0,6.857L0,57.143C0,58.961 0.722,60.706 2.008,61.992C3.294,63.278 5.039,64 6.857,64L26.464,64L26.464,42.241L17.464,42.241L17.464,32L26.464,32L26.464,24.194C26.464,15.316 31.75,10.411 39.846,10.411C43.723,10.411 47.777,11.103 47.777,11.103L47.777,19.817L43.31,19.817C38.909,19.817 37.536,22.549 37.536,25.35L37.536,32L47.361,32L45.79,42.241L37.536,42.241L37.536,64L57.143,64C58.961,64 60.706,63.278 61.992,61.992C63.278,60.706 64,58.961 64,57.143L64,6.857C64,5.039 63.278,3.294 61.992,2.008C60.706,0.722 58.961,0 57.143,0Z" fill="#000000"/>
</svg>
